<svg width="65" height="65" viewBox="0 0 65 65" fill="none" xmlns="http://www.w3.org/2000/svg">
<path d="M63.6316 29.25L35.75 1.36842C34.8947 0.513158 33.6974 0 32.5 0C31.3026 0 30.1053 0.513158 29.25 1.36842L23.2632 7.35526L30.2763 14.3684C30.9605 14.0263 31.6447 13.8553 32.5 13.8553C35.4079 13.8553 37.6316 16.0789 37.6316 18.9868C37.6316 19.8421 37.4605 20.5263 37.1184 21.2105L43.9605 28.0526C44.6447 27.7105 45.3289 27.5395 46.1842 27.5395C49.0921 27.5395 51.3158 29.7632 51.3158 32.6711C51.3158 35.5789 49.0921 37.8026 46.1842 37.8026C43.2763 37.8026 41.0526 35.5789 41.0526 32.6711C41.0526 31.8158 41.2237 31.1316 41.5658 30.4474L34.7237 23.6053C34.5526 23.6053 34.3816 23.7763 34.2105 23.7763V41.5658C36.2632 42.25 37.6316 44.1316 37.6316 46.3553C37.6316 49.2632 35.4079 51.4868 32.5 51.4868C29.5921 51.4868 27.3684 49.2632 27.3684 46.3553C27.3684 44.1316 28.7368 42.25 30.7895 41.5658V23.6053C28.7368 22.9211 27.3684 21.0395 27.3684 18.8158C27.3684 17.9605 27.5395 17.2763 27.8816 16.5921L20.8684 9.57895L1.36842 29.25C0.513158 30.1053 0 31.3026 0 32.5C0 33.6974 0.513158 34.8947 1.36842 35.75L29.25 63.6316C30.1053 64.4868 31.3026 65 32.5 65C33.6974 65 34.8947 64.4868 35.75 63.6316L63.6316 35.75C64.4868 34.8947 65 33.6974 65 32.5C65 31.3026 64.4868 30.1053 63.6316 29.25Z" fill="#F4511E"/>
</svg>
