<svg width="74" height="45" viewBox="0 0 74 45" fill="none" xmlns="http://www.w3.org/2000/svg">
<path d="M18.2804 0C17.2457 0 16.2017 0.240208 15.1608 0.683668C14.1137 1.13021 13.079 1.7492 12.0596 2.54682C10.9778 3.3927 9.97772 4.33817 9.07245 5.37079C8.10854 6.46097 7.19391 7.66508 6.34086 8.95543C5.4909 10.2489 4.69944 11.6254 3.93879 13.0205H3.93571V13.0236C3.19969 14.4802 2.55605 15.98 1.99557 17.5044C1.44125 19.0318 0.997785 20.5624 0.646712 22.1145C0.307958 23.6543 0.0985467 25.154 0.0307958 26.6261C0.0122317 26.7184 0.0019257 26.8122 0 26.9063L0 27.1989C0 28.0027 0.117024 28.8311 0.230969 29.5886V29.5948L0.234048 29.601C0.44346 30.4078 0.772975 31.1531 1.18872 31.809C1.61503 32.4567 2.17988 33.0015 2.84246 33.4042C3.51072 33.8292 4.30218 34.0417 5.23221 34.0417C6.04214 34.0417 6.88287 33.8569 7.74823 33.472C8.60744 33.087 9.46356 32.5851 10.3166 31.9969C11.1419 31.4056 11.9673 30.7281 12.7618 29.9643C13.3993 29.3731 13.9813 28.7571 14.5572 28.1474L13.9536 30.0198C13.6918 30.9221 13.3993 31.7936 13.1621 32.6467C12.9004 33.4905 12.694 34.248 12.5185 34.9194C12.343 35.5846 12.2229 36.0342 12.2229 36.3237V36.9858C12.2229 37.728 12.2999 38.2515 12.5431 38.581C12.6641 38.7354 12.8204 38.8585 12.9989 38.94C13.1773 39.0214 13.3727 39.0588 13.5686 39.0491C13.8656 39.0448 14.1527 38.9418 14.3847 38.7566C14.6342 38.5718 14.8467 38.3347 15.0592 38.0667V38.0606L15.0653 38.0575C15.2409 37.7896 15.4195 37.5032 15.5704 37.2014C15.7244 36.8903 15.8106 36.6162 15.8999 36.373L16.1062 35.6308L16.5466 34.1064L17.1317 32.0677C17.3658 31.307 17.569 30.5433 17.8308 29.7673L18.5237 27.4576C18.7454 26.7061 18.9548 26.0256 19.1488 25.422C19.3429 24.806 19.5061 24.3072 19.6416 23.9037C19.7032 23.7036 19.7648 23.5465 19.8079 23.4295L19.851 23.3309L19.9742 23.3864L20.0296 23.2385C20.2637 22.5672 20.4946 21.9236 20.7287 21.3107C20.9627 20.6948 21.1968 20.0789 21.3754 19.4722C21.8316 18.1977 22.0609 16.8532 22.0529 15.4995C22.0561 15.23 22.0037 14.9627 21.8989 14.7143C21.8203 14.5003 21.6889 14.3096 21.517 14.1599C21.3611 14.022 21.1788 13.9173 20.9812 13.852C20.7921 13.791 20.5947 13.7598 20.3961 13.7596C19.9768 13.7658 19.5699 13.9025 19.232 14.1507C18.8347 14.4155 18.5391 14.8559 18.3174 15.4503L16.6236 20.8857C16.3393 21.4367 16.013 21.9649 15.6474 22.4656C14.1515 24.5726 12.3804 26.4731 10.3813 28.1104C9.7438 28.634 9.13712 29.0374 8.53353 29.3546C8.06549 29.6298 7.53634 29.7844 6.99373 29.8042C6.64612 29.8148 6.30589 29.7025 6.0329 29.487C5.75012 29.2673 5.53286 28.9745 5.40467 28.6401C5.24993 28.2578 5.14438 27.8573 5.09055 27.4483C5.03302 27.0175 5.00421 26.5834 5.00432 26.1487C5.00432 24.8769 5.20758 23.4572 5.61408 21.8558C6.02059 20.2544 6.57491 18.653 7.27398 16.9931C7.97304 15.3302 8.78913 13.7288 9.69453 12.1551C10.5968 10.5814 11.5577 9.18332 12.5462 7.96072C13.5317 6.74121 14.5172 5.78654 15.5334 5.03512C16.5404 4.2837 17.4428 3.92031 18.3112 3.92031C18.8546 3.91232 19.3879 4.0679 19.8418 4.36685C20.3099 4.66865 20.7348 5.17678 21.1352 5.89432C21.5478 6.69193 21.9636 7.30785 22.3208 7.75747C22.6904 8.21941 23.1184 8.45654 23.5773 8.45654C23.8263 8.45898 24.0724 8.40218 24.2951 8.2908C24.5179 8.17943 24.7109 8.01668 24.8584 7.81598C25.2125 7.391 25.3819 6.80896 25.3819 6.10374C25.3819 5.8081 25.3511 5.48782 25.2895 5.1583C25.2196 4.789 25.0727 4.43854 24.8584 4.12972C23.8914 2.68232 22.8536 1.6445 21.748 0.976229H21.7419C20.6952 0.34664 19.5018 0.00950188 18.2804 0ZM52.0357 2.63304C51.5892 2.63981 51.1528 2.76752 50.7731 3.00259L50.7669 3.00567C50.3065 3.33021 49.9631 3.79462 49.7876 4.32989L43.9703 18.9826L42.6861 22.2007C42.2149 23.371 41.7776 24.5412 41.3095 25.7361C41.0949 26.2903 40.9139 26.8569 40.7675 27.4329C40.5112 27.6624 40.2472 27.8833 39.9761 28.095C39.3386 28.5878 38.735 28.9604 38.1622 29.2191H38.156C37.5894 29.5055 37.1121 29.6164 36.7302 29.6164C36.4777 29.6164 36.3083 29.5548 36.2005 29.4531C36.0927 29.3515 36.028 29.1945 36.028 28.9419C36.028 28.3722 36.1143 27.7409 36.2867 27.048C36.4623 26.3705 36.6932 25.6591 36.955 24.9446C37.206 24.2247 37.4875 23.5157 37.7988 22.8197L38.6488 20.8365C38.9136 20.2205 39.1199 19.6601 39.2955 19.192C39.4518 18.8232 39.5445 18.4307 39.5696 18.031C39.5761 17.5459 39.4212 17.0725 39.1292 16.6852C38.99 16.4991 38.8084 16.3489 38.5995 16.2472C38.3906 16.1454 38.1605 16.095 37.9281 16.1001C37.7046 16.0949 37.4829 16.142 37.2808 16.2378C37.0787 16.3335 36.9017 16.4751 36.7641 16.6513C36.4347 17.037 36.1705 17.4739 35.9819 17.9447C35.7354 18.4801 35.5285 19.0328 35.3629 19.5985C35.1904 20.1836 34.9594 20.7318 34.7254 21.246C34.3774 22.0159 33.9678 22.8597 33.4443 23.7898C32.9322 24.7046 32.3505 25.5787 31.7043 26.4043C31.0668 27.205 30.3739 27.8795 29.6256 28.4184C28.8865 28.9573 28.1012 29.2099 27.3159 29.2099C27.0603 29.2099 26.8909 29.1175 26.8016 28.9388C26.6917 28.7247 26.6367 28.4866 26.6415 28.2459C26.6723 27.6177 26.7831 26.9556 26.9864 26.2658C27.1896 25.5821 27.4206 24.9015 27.6824 24.2332C27.9441 23.5865 28.2367 22.9275 28.5539 22.3085C28.8773 21.6895 29.1698 21.1044 29.4593 20.5839V20.5809L30.223 19.1335C30.4324 18.7146 30.5525 18.3851 30.6388 18.1172L30.6419 18.111C30.6727 17.9878 30.7065 17.8308 30.7065 17.6614C30.711 17.4308 30.6536 17.2032 30.5402 17.0024V16.9993L30.5372 16.9962C30.4232 16.8111 30.2731 16.6508 30.0959 16.5248C29.9186 16.3989 29.7178 16.31 29.5055 16.2633C29.2003 16.1676 28.8766 16.1465 28.5615 16.2017C28.2465 16.2569 27.9492 16.3868 27.6947 16.5805C27.2882 16.8607 26.9833 17.2949 26.7123 17.8924C25.8216 19.7219 25.0099 21.5888 24.2794 23.488C23.6943 25.0432 23.2847 26.3027 22.9922 27.2728C22.7697 27.9774 22.6018 28.6981 22.4902 29.4285V29.4316L22.4286 30.143V30.1491C22.4286 30.8082 22.5179 31.381 22.7058 31.8429V31.8491C22.9152 32.3018 23.1615 32.6682 23.4726 32.9485C23.7919 33.2274 24.1713 33.4287 24.5812 33.5367C24.9877 33.6598 25.4127 33.7184 25.8439 33.7184C26.8016 33.7184 27.6855 33.5397 28.4954 33.241C29.3053 32.9423 30.0383 32.5266 30.6942 32.0215C31.3409 31.5195 31.926 30.956 32.428 30.3339C32.7976 29.9028 33.0747 29.4562 33.3519 29.0189C33.2287 29.6964 33.1117 30.3647 33.1117 30.9098C33.1117 31.926 33.3057 32.6651 33.7338 33.1178C33.9411 33.3344 34.1916 33.5049 34.4691 33.6184C34.7465 33.732 35.0447 33.7859 35.3444 33.7769C35.9849 33.7769 36.6963 33.6013 37.4816 33.2533C38.2607 32.9053 39.0522 32.4465 39.8529 31.8798C40.0531 31.7413 40.244 31.5934 40.438 31.4456L40.4534 31.5565C40.5369 31.942 40.6938 32.308 40.9153 32.6343L40.9215 32.6405C41.1679 32.9454 41.445 33.1948 41.8177 33.3796C42.1965 33.5705 42.6584 33.6598 43.2035 33.6598C43.9826 33.6598 44.7925 33.4782 45.6271 33.1209H45.6333C46.4586 32.736 47.287 32.2617 48.1123 31.6427C48.9377 31.0237 49.7907 30.2877 50.613 29.4963L50.6437 29.4685C50.5021 29.795 50.3666 30.1214 50.2188 30.4509C49.5443 31.9414 48.8576 33.4443 48.1431 34.981C47.4256 36.5208 46.708 38.0421 46.0367 39.5634L46.0336 39.5726L46.0305 39.5788C45.9346 39.8681 45.8278 40.1537 45.7103 40.4349C45.5994 40.7182 45.4485 41.0139 45.3561 41.3526C45.2422 41.6606 45.1251 41.9655 45.0635 42.2981C44.9712 42.6368 44.9404 42.9663 44.9404 43.2681C44.9404 43.9087 45.1221 44.3984 45.4701 44.6447C45.8309 44.8893 46.26 45.0133 46.6957 44.9989C47.0714 44.9989 47.4163 44.9065 47.7274 44.7525L47.7305 44.7494C48.0393 44.5746 48.3137 44.345 48.5404 44.0719C48.7744 43.7948 48.9715 43.4806 49.1502 43.1234C49.3318 42.7631 49.4797 42.3781 49.6244 41.9994L49.6306 41.987V41.9747C49.6552 41.8608 49.7445 41.6021 49.8893 41.2233L50.3881 39.8806L50.9733 38.3039L51.5861 36.6963L52.1096 35.3567C52.2574 34.9748 52.3468 34.71 52.4022 34.5714C52.4607 34.4544 52.55 34.2758 52.664 33.9863L53.0735 33.0224L53.5694 31.8829L54.099 30.7127L54.5363 29.6595L54.8535 28.9635L54.8566 28.9604C55.1184 28.4369 55.4356 27.8579 55.7867 27.2174C56.1654 26.5799 56.5719 25.967 57.0062 25.3296C57.4743 24.7137 57.9362 24.1039 58.432 23.5249C58.9278 22.9491 59.4483 22.4563 59.9718 21.9913C60.5046 21.5602 61.0373 21.1845 61.5763 20.9288C62.0517 20.6819 62.5774 20.5471 63.113 20.5347C63.3778 20.5347 63.5534 20.5901 63.6612 20.6548C63.704 20.6954 63.7377 20.7447 63.76 20.7994C63.7823 20.8541 63.7927 20.9129 63.7905 20.972C63.7905 21.2183 63.6581 21.6094 63.347 22.0591C63.0268 22.5518 62.651 23.0784 62.186 23.6604C61.6871 24.2456 61.1913 24.8584 60.637 25.499C60.0827 26.1457 59.553 26.7893 59.0541 27.4329C58.5949 28.0264 58.1713 28.6465 57.7853 29.2899V29.293C57.474 29.7925 57.2598 30.3462 57.154 30.9252V30.9467C57.1512 30.9695 57.1471 30.9922 57.1417 31.0145C57.1324 31.0453 57.1232 31.0576 57.1232 31.1223V31.2978C57.1232 32.0893 57.4065 32.7298 57.967 33.164C58.5306 33.6321 59.3251 33.8415 60.3075 33.8415C61.3823 33.8415 62.3708 33.6321 63.2947 33.2133C64.2124 32.8006 65.1578 32.2402 66.1279 31.5011H66.131C67.101 30.7743 68.1019 29.9089 69.1828 28.905C70.233 27.9041 71.4587 26.7955 72.8291 25.579C73.1886 25.2948 73.4669 24.9209 73.6359 24.495C73.8176 24.07 73.91 23.6481 73.91 23.2324C73.9164 22.8832 73.8292 22.5387 73.6575 22.2346C73.5841 22.096 73.4741 21.9801 73.3394 21.8997C73.2048 21.8194 73.0506 21.7775 72.8937 21.7788C72.7174 21.7832 72.5445 21.8285 72.3887 21.9112C72.2255 21.9913 72.053 22.096 71.8652 22.2223C71.5449 22.3239 71.9175 22.4163 71.9575 22.5549C70.3007 24.0361 68.8656 25.2865 67.7293 26.2688C66.559 27.2913 65.5767 28.0796 64.816 28.6956C64.2525 29.1514 63.6622 29.573 63.0483 29.9582C62.6418 30.2015 62.3308 30.3185 62.1583 30.3185C61.9181 30.3185 61.7518 30.2569 61.6779 30.1861C61.6336 30.1431 61.5989 30.0913 61.5761 30.034C61.5533 29.9766 61.5428 29.9151 61.5455 29.8535C61.5455 29.8319 61.5763 29.7426 61.6533 29.6225C61.7333 29.4993 61.8534 29.3423 62.0136 29.1544L63.2392 27.7224C63.7381 27.165 64.237 26.5491 64.7914 25.8747C65.3457 25.1972 65.8692 24.4981 66.3373 23.7744C66.83 23.0661 67.215 22.3362 67.5383 21.6187C67.8494 20.9011 68.0188 20.2175 68.0188 19.5677C68.0286 19.1091 67.9159 18.6562 67.6923 18.2558C67.4808 17.8878 67.1892 17.5721 66.8393 17.3319C66.5005 17.0855 66.1063 16.9008 65.6844 16.7745H65.6814C64.6168 16.477 63.4821 16.5564 62.4693 16.9993C61.8193 17.2703 61.2015 17.6133 60.6278 18.0217C60.0189 18.4463 59.4378 18.9091 58.8878 19.4075C58.4873 19.7849 58.097 20.1731 57.7176 20.5716L57.8284 20.0296C57.8746 19.8048 57.9054 19.5954 57.9331 19.3921V19.3891C57.9639 19.1796 57.9732 19.0318 57.9732 18.9302C57.9964 18.5116 57.8574 18.1002 57.5851 17.7815V17.7784H57.579C57.311 17.5013 56.8953 17.3812 56.3471 17.3812C55.9714 17.3812 55.608 17.5967 55.3001 17.9663C54.9822 18.3633 54.7105 18.7952 54.4901 19.2536C54.2526 19.733 54.0448 20.2267 53.8681 20.7318L53.4585 21.8958V21.8989C53.3168 22.3886 53.1598 22.8875 52.9965 23.3925C52.9534 23.4048 52.9134 23.4172 52.8703 23.4356C52.71 23.4906 52.566 23.5849 52.4515 23.7097L52.4607 23.7005C52.0973 24.0515 51.6877 24.4611 51.2319 24.8984C50.7792 25.3357 50.2988 25.773 49.803 26.2103C49.3041 26.6199 48.7991 27.0572 48.294 27.4637C47.7951 27.8641 47.3086 28.2182 46.8435 28.5262C46.3816 28.8372 45.9505 29.0805 45.5532 29.2684C45.2584 29.4241 44.9342 29.5164 44.6016 29.5394C44.4168 29.5394 44.3398 29.4963 44.2936 29.41H44.2906C44.2171 29.2621 44.1832 29.0976 44.192 28.9327C44.192 28.5847 44.2536 28.1844 44.3891 27.7317C44.5185 27.282 44.654 26.8878 44.7895 26.546L44.8757 26.4536L46.0275 23.5219C46.4648 22.3978 46.9329 21.2245 47.4595 19.9742L49.0393 16.1124C49.5628 14.7974 50.0925 13.5255 50.5883 12.3122L52.0511 8.91847C52.4884 7.88373 52.8703 7.01221 53.1906 6.30699L53.1875 6.31315C53.3692 5.95284 53.4862 5.61408 53.6032 5.32768V5.32152C53.7089 5.02785 53.7661 4.71893 53.7726 4.40688C53.7726 3.80329 53.5848 3.32903 53.2183 3.04263C52.8837 2.7727 52.4655 2.62786 52.0357 2.63304Z" fill="black"/>
</svg>
