<svg width="149" height="45" viewBox="0 0 149 45" fill="none" xmlns="http://www.w3.org/2000/svg">
<path d="M60.5611 29.1717H64.3931L68.2995 16.1539H64.5778L62.2648 25.3893L59.7836 16.1539H56.5498L54.0604 25.3893L51.7695 16.1539H48.0477L51.9321 29.1717H55.7641L58.1805 20.8322L60.5611 29.1717ZM68.5008 22.7C68.5008 26.6064 71.1611 29.4956 75.3488 29.4956C78.5881 29.4956 80.329 27.552 80.8266 26.634L78.5591 24.9151C78.1869 25.4637 77.1669 26.5086 75.3956 26.5086C73.4769 26.5086 72.0833 25.2639 72.0089 23.5215H81.1754C81.1988 23.2707 81.1988 23.0253 81.1988 22.7731C81.1988 18.5179 78.9079 15.8258 74.876 15.8258C71.1639 15.8258 68.5021 18.7618 68.5021 22.6972L68.5008 22.7ZM72.1122 21.2802C72.2611 19.7888 73.306 18.6419 74.927 18.6419C76.4984 18.6419 77.6397 19.6868 77.7141 21.2802H72.1122ZM82.4959 29.1731H85.7352V27.8305C86.0839 28.2537 87.3796 29.4846 89.5948 29.4846C93.3165 29.4846 95.9686 26.6726 95.9686 22.6642C95.9686 18.6323 93.5288 15.8217 89.7933 15.8217C87.5547 15.8217 86.2576 17.0664 85.9337 17.513V11.1626H82.5014V29.1717L82.4959 29.1731ZM85.8317 22.7014C85.8317 20.2616 87.2763 18.8694 89.1675 18.8694C91.1607 18.8694 92.5032 20.4408 92.5032 22.7014C92.5032 25.0144 91.111 26.4603 89.1675 26.4603C87.0764 26.4603 85.8317 24.7649 85.8317 22.7014ZM97.307 33.828H100.739V27.8263C101.065 28.2495 102.356 29.4805 104.599 29.4805C108.321 29.4805 110.774 26.6685 110.774 22.638C110.774 18.6571 108.136 15.8175 104.4 15.8175C102.184 15.8175 100.888 17.0622 100.541 17.5089V16.1387H97.3015V33.8156L97.307 33.828ZM100.643 22.6269C100.643 20.5593 101.888 18.868 103.979 18.868C105.922 18.868 107.314 20.3126 107.314 22.6269C107.314 24.8944 105.972 26.459 103.979 26.459C102.087 26.459 100.643 25.0667 100.643 22.6269ZM111.397 25.1398C111.397 27.876 113.636 29.4956 116.277 29.4956C117.772 29.4956 118.766 29.049 119.44 28.324L119.664 29.1689H122.702V20.926C122.702 18.0134 121.457 15.8258 117.275 15.8258C115.454 15.8494 113.677 16.3838 112.146 17.3683L113.441 19.7116C114.412 19.2153 115.606 18.7922 116.901 18.7922C118.42 18.7922 119.265 19.5641 119.265 20.7109V21.5559C118.791 21.2306 117.77 20.8364 116.451 20.8364C113.413 20.8322 111.396 22.5732 111.396 25.137L111.397 25.1398ZM114.83 25.0378C114.83 23.9695 115.749 23.221 117.068 23.221C118.387 23.221 119.336 23.8965 119.336 25.0378C119.336 26.1336 118.387 26.8298 117.097 26.8298C115.807 26.8298 114.83 26.1102 114.83 25.0378ZM131.04 26.4576C128.876 26.4576 127.318 24.8862 127.318 22.6766C127.318 20.5855 128.688 18.8666 130.905 18.8666C132.373 18.8666 133.386 19.5861 133.943 20.1113L134.913 17.2221C134.068 16.577 132.721 15.8299 130.805 15.8299C126.847 15.8299 123.883 18.7425 123.883 22.7014C123.883 26.6602 126.772 29.497 130.83 29.497C132.721 29.497 134.143 28.703 134.886 28.1048L133.966 25.2928C133.39 25.7615 132.345 26.459 131.026 26.459L131.04 26.4576ZM136.192 29.1703H139.625V22.4477L143.98 29.1703H148.012L143.083 22.048L147.664 16.1484H143.804L139.623 21.6262V11.1736H136.191L136.192 29.1703Z" fill="#1A1C1C"/>
<path d="M39.3264 34.6825L21.0899 45V36.9665L32.4536 30.714L39.3264 34.6825ZM40.5753 33.5522V11.9799L33.9037 15.8353V29.7023L40.5753 33.5522ZM1.24885 34.6825L19.4854 45V36.9665L8.11891 30.7126L1.24885 34.6825ZM0 33.5522V11.9799L6.67157 15.8353V29.7023L0 33.5522ZM0.782944 10.5808L19.4881 0V7.76466L7.40765 14.4114L0.782944 10.5808ZM39.7923 10.5808L21.0871 0V7.76466L33.1676 14.4059L39.7923 10.5808Z" fill="#8ED6FB"/>
<path d="M19.4909 35.489L8.27744 29.3206V17.1077L19.4909 23.5808V35.489ZM21.0926 35.489L32.3061 29.3274V17.1091L21.0926 23.5822V35.489ZM9.03695 15.6976L20.2931 9.51123L31.5493 15.6976L20.2931 22.1955L9.03695 15.6976Z" fill="#1C78C0"/>
</svg>
