<svg width="81" height="30" viewBox="0 0 81 30" fill="none" xmlns="http://www.w3.org/2000/svg">
<g clip-path="url(#clip0_110798_370)">
<path d="M41.8187 9.93668L45.6724 9.68827C45.7603 10.3166 45.9215 10.7842 46.1852 11.1203C46.6102 11.6464 47.1963 11.9094 47.9729 11.9094C48.5443 11.9094 48.9986 11.7779 49.3063 11.5002C49.5993 11.2811 49.7752 10.9304 49.7752 10.565C49.7752 10.2143 49.614 9.87823 49.3356 9.65904C49.0425 9.39601 48.3538 9.13298 47.2695 8.89918C45.4966 8.50463 44.2218 7.97857 43.4745 7.30639C42.7272 6.67804 42.3023 5.75743 42.3316 4.77838C42.3316 4.10619 42.5367 3.434 42.9177 2.87872C43.3573 2.25037 43.958 1.75354 44.676 1.47589C45.4526 1.1398 46.5369 0.964447 47.8996 0.964447C49.57 0.964447 50.8448 1.27132 51.724 1.89966C52.6031 2.5134 53.1306 3.50707 53.2918 4.86605L49.4821 5.08525C49.3795 4.50074 49.1744 4.07697 48.8374 3.79932C48.5004 3.52168 48.0608 3.39017 47.4893 3.39017C47.0204 3.39017 46.6688 3.49246 46.4343 3.68242C46.2145 3.85777 46.068 4.1208 46.0827 4.41306C46.0827 4.63225 46.1999 4.83683 46.3757 4.96834C46.5662 5.1437 47.0204 5.30444 47.7384 5.45056C49.5114 5.8305 50.7715 6.21043 51.5481 6.60497C52.3247 6.99952 52.8815 7.48174 53.2185 8.05164C53.5702 8.63615 53.746 9.30833 53.7314 9.99513C53.7314 10.8134 53.4969 11.6318 53.028 12.3186C52.5445 13.0346 51.8705 13.5899 51.0792 13.926C50.244 14.2913 49.189 14.4813 47.9289 14.4813C45.7017 14.4813 44.1632 14.0575 43.2987 13.1953C42.4342 12.3332 41.9213 11.2518 41.8187 9.93668ZM0.923119 14.2621V1.19825H7.678C8.92348 1.19825 9.89056 1.30054 10.5499 1.51973C11.1946 1.72431 11.7661 2.14808 12.1471 2.71798C12.572 3.34633 12.7771 4.07697 12.7625 4.83683C12.8064 6.12275 12.1471 7.35022 11.0188 7.99319C10.5792 8.2416 10.0957 8.41696 9.5975 8.50463C9.96382 8.60692 10.3301 8.78228 10.6525 8.98685C10.9016 9.19143 11.1067 9.42524 11.2972 9.67365C11.517 9.92207 11.7075 10.1997 11.8687 10.492L13.8321 14.2767H9.23119L7.06259 10.2582C6.78419 9.74672 6.54975 9.41062 6.32996 9.24988C6.0369 9.0453 5.68524 8.94302 5.33358 8.94302H4.98191V14.2474H0.923119V14.2621ZM4.98191 6.48807H6.69627C7.06259 6.45885 7.41426 6.4004 7.76592 6.31272C8.02967 6.26888 8.26411 6.12275 8.42529 5.90356C8.82091 5.3775 8.7623 4.63225 8.27876 4.17925C8.01502 3.96006 7.50217 3.84316 6.76954 3.84316H4.98191V6.48807ZM0 25.4554L3.85365 25.207C3.94157 25.8354 4.10275 26.303 4.3665 26.6391C4.77677 27.1651 5.37753 27.4428 6.15412 27.4428C6.72558 27.4428 7.17981 27.3113 7.48752 27.0336C7.78057 26.7998 7.9564 26.4637 7.9564 26.0984C7.9564 25.7477 7.79522 25.4116 7.51682 25.1924C7.22377 24.9294 6.53509 24.6663 5.43614 24.4325C3.66317 24.038 2.38839 23.5119 1.6411 22.8398C0.893813 22.2114 0.468886 21.2908 0.498191 20.3117C0.498191 19.6396 0.703329 18.9674 1.0843 18.4121C1.52388 17.7837 2.12464 17.2869 2.84262 17.0093C3.61921 16.6732 4.70351 16.4978 6.06621 16.4978C7.73661 16.4978 9.0114 16.8047 9.89056 17.433C10.7697 18.0614 11.2826 19.0404 11.4437 20.3994L7.63405 20.6186C7.53148 20.0341 7.32634 19.6103 6.98933 19.3327C6.66697 19.055 6.21274 18.9235 5.64128 18.9381C5.1724 18.9381 4.82073 19.0404 4.58629 19.245C4.35185 19.4204 4.21997 19.6834 4.23462 19.9756C4.23462 20.1948 4.35185 20.3994 4.52768 20.5309C4.71816 20.7063 5.1724 20.867 5.89038 21.0132C7.66335 21.3931 8.92348 21.773 9.70007 22.1676C10.4767 22.5621 11.0335 23.0443 11.3705 23.6142C11.7221 24.1987 11.898 24.8709 11.898 25.5431C11.898 26.3614 11.6489 27.1651 11.1946 27.8519C10.7111 28.568 10.0371 29.1232 9.24584 29.4593C8.41064 29.8247 7.35564 30.0146 6.09551 30.0146C3.86831 30.0146 2.32978 29.5908 1.46527 28.7287C0.60076 27.8519 0.117221 26.7706 0 25.4554Z" fill="white"/>
<path d="M19.488 24.4325L23.034 25.4993C22.8435 26.3906 22.4479 27.2382 21.9057 27.9834C21.4075 28.641 20.7481 29.1525 20.0009 29.4885C19.2389 29.8246 18.2718 30 17.0996 30C15.6783 30 14.5061 29.7954 13.6123 29.3863C12.7038 28.9771 11.9272 28.2465 11.2679 27.209C10.6085 26.1714 10.2861 24.8417 10.2861 23.2197C10.2861 21.057 10.8576 19.3911 12.0151 18.2367C13.1727 17.0823 14.7992 16.4978 16.9091 16.4978C18.5649 16.4978 19.8543 16.8339 20.8068 17.4915C21.7445 18.1637 22.4479 19.1866 22.9167 20.5601L19.3415 21.3492C19.2536 21.0424 19.1217 20.7355 18.9459 20.4725C18.7261 20.1656 18.4477 19.9318 18.1107 19.7564C17.7737 19.5811 17.3927 19.508 17.0117 19.508C16.0886 19.508 15.3853 19.8734 14.9017 20.6186C14.5354 21.1593 14.3449 22.0214 14.3449 23.1904C14.3449 24.6371 14.5647 25.6308 15.0043 26.1715C15.4439 26.7121 16.0593 26.9752 16.8652 26.9752C17.6418 26.9752 18.2279 26.756 18.6235 26.3322C19.0191 25.8792 19.3122 25.2508 19.488 24.4325ZM27.7668 16.717H31.8109V21.2908H36.236V16.717H40.3095V29.7808H36.236V24.491H31.8109V29.7808H27.7668V16.717Z" fill="white"/>
<path d="M39.7527 23.2489C39.7527 21.1154 40.3534 19.4496 41.5403 18.266C42.7272 17.0823 44.3976 16.4832 46.5222 16.4832C48.7055 16.4832 50.3759 17.0677 51.5627 18.2367C52.7496 19.4058 53.3357 21.0424 53.3357 23.1466C53.3357 24.681 53.072 25.923 52.5591 26.9021C52.0609 27.8665 51.2843 28.6556 50.3319 29.1817C49.3502 29.7224 48.134 30 46.6834 30C45.2035 30 43.9873 29.7662 43.0202 29.2986C42.0239 28.8018 41.2033 28.0273 40.6612 27.0775C40.0604 26.0546 39.7527 24.7832 39.7527 23.2489ZM43.7968 23.2635C43.7968 24.5787 44.0459 25.5285 44.5295 26.113C45.013 26.6829 45.687 26.9752 46.5369 26.9752C47.4014 26.9752 48.0754 26.6975 48.5589 26.1276C49.0425 25.5577 49.2769 24.5494 49.2769 23.0882C49.2769 21.8607 49.0278 20.9547 48.5296 20.3994C48.0315 19.8295 47.3574 19.5519 46.5076 19.5519C45.7603 19.5227 45.0423 19.8441 44.5441 20.414C44.0459 20.9839 43.7968 21.9338 43.7968 23.2635ZM57.4824 23.2489C57.4824 21.1154 58.0832 19.4496 59.2701 18.266C60.4569 17.0823 62.1273 16.4832 64.252 16.4832C66.4352 16.4832 68.1203 17.0677 69.2925 18.2367C70.4647 19.4058 71.0655 21.0424 71.0655 23.1466C71.0655 24.681 70.8017 25.923 70.2889 26.9021C69.7907 27.8665 69.0141 28.6556 68.0617 29.1817C67.0799 29.7224 65.8638 30 64.4131 30C62.9332 30 61.7171 29.7662 60.75 29.2986C59.7536 28.8018 58.933 28.0273 58.3909 27.0775C57.7901 26.0546 57.4824 24.7832 57.4824 23.2489ZM61.5266 23.2635C61.5266 24.5787 61.7757 25.5285 62.2592 26.113C62.7427 26.6829 63.4168 26.9752 64.2666 26.9752C65.1311 26.9752 65.8051 26.6975 66.2887 26.1276C66.7722 25.5577 67.0067 24.5494 67.0067 23.0882C67.0067 21.8607 66.7576 20.9547 66.2594 20.3994C65.7612 19.8295 65.0872 19.5519 64.2373 19.5519C63.49 19.5227 62.7574 19.8441 62.2739 20.414C61.7757 20.9839 61.5266 21.9338 61.5266 23.2635Z" fill="white"/>
<path d="M70.6406 16.717H74.6848V26.566H81.0001V29.7808H70.626V16.717H70.6406Z" fill="white"/>
<mask id="mask0_110798_370" style="mask-type:luminance" maskUnits="userSpaceOnUse" x="52" y="1" width="19" height="18">
<path d="M66.1829 15.9631C70.2545 12.9032 71.5101 7.71611 68.9873 4.37748C66.4645 1.03885 61.1186 0.812911 57.0471 3.87282C52.9755 6.93274 51.7199 12.1198 54.2427 15.4584C56.7655 18.797 62.1113 19.023 66.1829 15.9631Z" fill="white"/>
</mask>
<g mask="url(#mask0_110798_370)">
<mask id="mask1_110798_370" style="mask-type:luminance" maskUnits="userSpaceOnUse" x="43" y="-8" width="37" height="36">
<path d="M43.8589 8.26213L64.8991 -7.55017L79.4583 11.7172L58.4181 27.5295L43.8589 8.26213Z" fill="white"/>
</mask>
<g mask="url(#mask1_110798_370)">
<mask id="mask2_110798_370" style="mask-type:luminance" maskUnits="userSpaceOnUse" x="52" y="1" width="19" height="18">
<path d="M66.1829 15.9631C70.2545 12.9032 71.5101 7.71611 68.9873 4.37748C66.4645 1.03885 61.1186 0.812911 57.0471 3.87282C52.9755 6.93274 51.7199 12.1198 54.2427 15.4584C56.7655 18.797 62.1113 19.023 66.1829 15.9631Z" fill="white"/>
</mask>
<g mask="url(#mask2_110798_370)">
<mask id="mask3_110798_370" style="mask-type:luminance" maskUnits="userSpaceOnUse" x="49" y="-2" width="25" height="24">
<path d="M49.7178 9.54868L64.4508 -1.5232L73.5953 10.5789L58.8622 21.6507L49.7178 9.54868Z" fill="white"/>
</mask>
<g mask="url(#mask3_110798_370)">
<path d="M66.1827 15.9631C70.2543 12.9032 71.5098 7.71611 68.987 4.37748C66.4642 1.03885 61.1184 0.812911 57.0468 3.87282C52.9752 6.93274 51.7197 12.1198 54.2425 15.4584C56.7653 18.797 62.1111 19.023 66.1827 15.9631Z" stroke="white" stroke-width="4" stroke-miterlimit="10"/>
</g>
<mask id="mask4_110798_370" style="mask-type:luminance" maskUnits="userSpaceOnUse" x="51" y="-1" width="21" height="22">
<path d="M51.8174 16.8119L56.8969 -0.868141L71.5085 3.3135L66.4289 20.9935L51.8174 16.8119Z" fill="white"/>
</mask>
<g mask="url(#mask4_110798_370)">
<path d="M49.718 9.54433L64.4468 -1.5232L73.5955 10.5832L58.8667 21.6507L49.718 9.54433Z" stroke="white" stroke-width="4" stroke-miterlimit="10"/>
</g>
<path d="M66.1829 15.9631C70.2545 12.9032 71.5101 7.71613 68.9873 4.3775C66.4645 1.03887 61.1186 0.812926 57.0471 3.87284C52.9755 6.93275 51.7199 12.1198 54.2427 15.4584C56.7655 18.797 62.1113 19.023 66.1829 15.9631Z" stroke="white" stroke-width="4" stroke-miterlimit="10"/>
<mask id="mask5_110798_370" style="mask-type:luminance" maskUnits="userSpaceOnUse" x="49" y="-2" width="25" height="24">
<path d="M49.7178 9.54868L64.4508 -1.5232L73.5953 10.5789L58.8622 21.6507L49.7178 9.54868Z" fill="white"/>
</mask>
<g mask="url(#mask5_110798_370)">
<path d="M66.1827 15.9631C70.2543 12.9032 71.5098 7.71611 68.987 4.37748C66.4642 1.03885 61.1184 0.812911 57.0468 3.87282C52.9752 6.93274 51.7197 12.1198 54.2425 15.4584C56.7653 18.797 62.1111 19.023 66.1827 15.9631Z" stroke="white" stroke-width="4" stroke-miterlimit="10"/>
</g>
<mask id="mask6_110798_370" style="mask-type:luminance" maskUnits="userSpaceOnUse" x="51" y="-1" width="21" height="22">
<path d="M51.8174 16.8119L56.8969 -0.868141L71.5085 3.3135L66.4289 20.9935L51.8174 16.8119Z" fill="white"/>
</mask>
<g mask="url(#mask6_110798_370)">
<path d="M49.718 9.54433L64.4468 -1.5232L73.5955 10.5832L58.8667 21.6507L49.718 9.54433Z" stroke="white" stroke-width="4" stroke-miterlimit="10"/>
</g>
<path d="M43.8589 8.26213L64.8991 -7.55017L79.4583 11.7172L58.4181 27.5295L43.8589 8.26213Z" stroke="white" stroke-width="4" stroke-miterlimit="10"/>
</g>
<path d="M66.1829 15.9631C70.2545 12.9032 71.5101 7.71611 68.9873 4.37748C66.4645 1.03885 61.1186 0.812911 57.0471 3.87282C52.9755 6.93274 51.7199 12.1198 54.2427 15.4584C56.7655 18.797 62.1113 19.023 66.1829 15.9631Z" stroke="white" stroke-width="4" stroke-miterlimit="10"/>
<path d="M57.4971 8.95761L58.9624 7.93471L60.7647 10.4919C61.0724 10.9011 61.3068 11.3395 61.4826 11.8217C61.5852 12.187 61.5559 12.5816 61.4094 12.9323C61.2189 13.3707 60.9112 13.736 60.5009 13.999C60.0174 14.3351 59.6071 14.5251 59.2554 14.5835C58.9184 14.642 58.5668 14.5835 58.2444 14.4374C57.8927 14.262 57.585 14.0136 57.3506 13.6921L58.6107 12.5231C58.7133 12.6839 58.8452 12.83 58.9917 12.9469C59.0943 13.02 59.2115 13.0638 59.3434 13.0638C59.4459 13.0638 59.5485 13.02 59.6218 12.9615C59.7683 12.8738 59.8708 12.6985 59.8562 12.5231C59.8122 12.2747 59.7097 12.0263 59.5485 11.8363L57.4971 8.95761ZM61.8929 10.5796L63.2263 9.5275C63.3728 9.70286 63.5633 9.83437 63.7685 9.90744C64.0615 9.99511 64.3692 9.93666 64.6183 9.7467C64.7941 9.62979 64.9407 9.46905 64.9993 9.26448C65.0872 9.00145 64.9407 8.70919 64.6769 8.62151C64.633 8.6069 64.589 8.59229 64.5451 8.59229C64.3692 8.57768 64.0615 8.65074 63.6073 8.84071C62.86 9.14757 62.2739 9.26448 61.8343 9.22064C61.4094 9.1768 61.0138 8.95761 60.7793 8.59229C60.6035 8.34387 60.5156 8.05162 60.5009 7.75936C60.5009 7.42327 60.5888 7.08717 60.7793 6.80953C61.0577 6.41499 61.3947 6.07889 61.805 5.81586C62.4204 5.39209 62.9626 5.18752 63.4314 5.18752C63.9003 5.18752 64.3399 5.40671 64.7502 5.8597L63.4314 6.89721C63.1677 6.56111 62.6695 6.48805 62.3325 6.75108L62.2885 6.79492C62.142 6.8826 62.0394 7.01411 61.9808 7.17485C61.9369 7.29175 61.9662 7.42327 62.0394 7.52556C62.0981 7.59862 62.186 7.65707 62.2885 7.65707C62.4058 7.67168 62.6109 7.61323 62.9039 7.48172C63.6366 7.17485 64.1934 6.9995 64.5744 6.94105C64.8967 6.8826 65.2337 6.91182 65.5414 7.04334C65.8198 7.16024 66.0543 7.36482 66.2155 7.61323C66.4206 7.90549 66.5378 8.2562 66.5525 8.62151C66.5671 9.00145 66.4646 9.36677 66.2594 9.68825C65.9957 10.0828 65.6587 10.4189 65.263 10.6819C64.4571 11.2372 63.7978 11.471 63.2703 11.3833C62.6988 11.2956 62.2299 11.0034 61.8929 10.5796Z" fill="white"/>
</g>
</g>
</g>
<defs>
<clipPath id="clip0_110798_370">
<rect width="81" height="30" fill="white"/>
</clipPath>
</defs>
</svg>
